<svg id="Layer_2" data-name="Layer 2" xmlns="http://www.w3.org/2000/svg" viewBox="0 0 362.72 258.89"><defs><style>.cls-1{isolation:isolate;}.cls-2{fill:#fff;}.cls-3,.cls-4{fill:none;stroke:#686058;stroke-linecap:round;stroke-linejoin:round;}.cls-3{stroke-width:2px;}.cls-4{stroke-width:1.97px;}</style></defs><title>infinita-sencacoes</title><g class="cls-1"><g class="cls-1"><path class="cls-2" d="M73.84,121.13V109.18h1.25V120h6.06v1.15Z" transform="translate(-0.01)"/></g><g class="cls-1"><path class="cls-2" d="M94.33,121.13l-1.45-3.54H87.33l-1.47,3.54H84.51l4.9-11.95h1.38l4.9,11.95ZM90.1,110.79l-2.32,5.65h4.64Z" transform="translate(-0.01)"/><path class="cls-2" d="M107.21,121.13,101,111.3v9.83H99.76V109.18H101l6.2,9.83v-9.83h1.26v11.95Z" transform="translate(-0.01)"/><path class="cls-2" d="M121,111.8a3.54,3.54,0,0,0-3-1.59,3.4,3.4,0,0,0-3,1.49,7.77,7.77,0,0,0,0,6.91,3.4,3.4,0,0,0,3,1.49,3.54,3.54,0,0,0,3-1.59l1,.75a4.76,4.76,0,0,1-3.28,2l.47,1.06-1.23,2.2h-1.42l1.56-2.28-.43-.94a4.7,4.7,0,0,1-3.69-2,9,9,0,0,1,0-8.19,5,5,0,0,1,8,0Z" transform="translate(-0.01)"/><path class="cls-2" d="M135.16,121.13l-1.45-3.54h-5.55l-1.47,3.54h-1.35l4.9-11.95h1.38l4.9,11.95Zm-4.23-10.34-2.32,5.65h4.64Z" transform="translate(-0.01)"/><path class="cls-2" d="M149.8,121.13V112.3l-3.39,8.83h-1.18l-3.37-8.83v8.83h-1.27V109.18h1.27l4,10.48,4-10.48h1.27v11.95Z" transform="translate(-0.01)"/><path class="cls-2" d="M156.3,121.13V109.18h8.06v1.18h-6.81v4h6v1.14h-6V120h6.81v1.18Z" transform="translate(-0.01)"/><path class="cls-2" d="M176.61,121.13l-6.21-9.83v9.83h-1.25V109.18h1.25l6.21,9.83v-9.83h1.25v11.95Z" transform="translate(-0.01)"/></g><g class="cls-1"><path class="cls-2" d="M187.46,110.34v10.79h-1.27V110.34h-3.93v-1.16h9.14v1.16Z" transform="translate(-0.01)"/></g><g class="cls-1"><path class="cls-2" d="M199.63,121.28c-3.81,0-5-3-5-6.13s1.24-6.12,5-6.12,5,3,5,6.12S203.46,121.28,199.63,121.28Zm0-11.07c-3.07,0-3.78,2.57-3.78,4.94s.71,4.95,3.78,4.95,3.79-2.57,3.79-4.95S202.69,110.21,199.63,110.21Z" transform="translate(-0.01)"/></g></g><path class="cls-3" d="M158.48,100.19" transform="translate(-0.01)"/><path class="cls-3" d="M123.06,146.05" transform="translate(-0.01)"/><path class="cls-3" d="M207.05,60a55.39,55.39,0,0,1,63.21,46.25c.12.81.23,1.63.32,2.45" transform="translate(-0.01)"/><path class="cls-3" d="M240.6,82.52a40.4,40.4,0,0,1,11.58,14.14" transform="translate(-0.01)"/><path class="cls-3" d="M183.63,89.83" transform="translate(-0.01)"/><path class="cls-3" d="M123,146a54.21,54.21,0,1,1-19.43-82" transform="translate(-0.01)"/><path class="cls-3" d="M123,146a54.21,54.21,0,1,1-19.43-82" transform="translate(-0.01)"/><path class="cls-3" d="M99.09,193.05c-21.82,5.08-46.31.66-66.65-15.05C7.5,158.73-3.19,128.11,2.5,100.21" transform="translate(-0.01)"/><path class="cls-3" d="M38.82,166.34c30.55,23.59,72,18,95-12.2l12.06-15.42" transform="translate(-0.01)"/><path class="cls-3" d="M191.62,100.21" transform="translate(-0.01)"/><line class="cls-3" x1="146.34" y1="160.04" x2="131.72" y2="178.7"/><path class="cls-4" d="M242.85,115.62A26.33,26.33,0,0,0,233,92.21c-11.67-9-28.88-6.28-38.44,6.1l-2,2.25" transform="translate(-0.01)"/><polyline class="cls-3" points="123.33 190.03 99.91 220.34 70.49 257.89"/><polyline class="cls-3" points="229.64 1 196.23 44.25 154.26 97.82"/><path class="cls-3" d="M121,77.09a53.69,53.69,0,0,1,9.37,14.81" transform="translate(-0.01)"/><path class="cls-3" d="M103.41,63.93A54.89,54.89,0,0,1,121,77.09" transform="translate(-0.01)"/><path class="cls-3" d="M54.61,82.52a40.62,40.62,0,0,0-14.07,43.85" transform="translate(-0.01)"/><path class="cls-3" d="M111.58,89.83" transform="translate(-0.01)"/><path class="cls-3" d="M111.58,89.83" transform="translate(-0.01)"/><path class="cls-3" d="M149.33,138.72" transform="translate(-0.01)"/><path class="cls-3" d="M58.66,132.35c-9.71-12.58-8-30.2,3.88-39.36,10.37-8,25.06-6.89,35.08,2" transform="translate(-0.01)"/><path class="cls-3" d="M77.83,155.24a40.49,40.49,0,0,0,26.44-8.44" transform="translate(-0.01)"/><path class="cls-3" d="M40.54,126.37a40.43,40.43,0,0,0,6.76,13.12" transform="translate(-0.01)"/><path class="cls-3" d="M47.3,139.49a40.51,40.51,0,0,0,30.53,15.75" transform="translate(-0.01)"/><path class="cls-3" d="M235.29,35.41A79.66,79.66,0,0,1,265.1,49.89c22.94,17.72,33.57,45.27,30.18,71.25" transform="translate(-0.01)"/><g class="cls-1"><g class="cls-1"><path class="cls-2" d="M157.2,162.1V125.4h1.47v36.7Z" transform="translate(-0.01)"/><path class="cls-2" d="M185,162.1H183.7V147.8c0-5.73-1.89-9.94-8.73-9.94-4.68,0-8.2,3.21-8.2,7V162.1H165.4V137h1.37v4.31c2.42-3.74,5.41-4.74,8.2-4.74,7.26,0,10,4.42,10,11.26Z" transform="translate(-0.01)"/><path class="cls-2" d="M200.1,126.71a7.24,7.24,0,0,0-5.73,2.79c-1.21,1.73-1.37,4.15-1.37,6.1V137h6.16v1.31H193V162.1h-1.31V138.28h-2.94V137h2.94v-1.42c0-2.32.1-4.74,1.52-6.73a8.51,8.51,0,0,1,6.89-3.42Z" transform="translate(-0.01)"/><path class="cls-2" d="M204.41,128.82a1.71,1.71,0,0,1-1.68-1.74,1.66,1.66,0,0,1,1.68-1.68,1.7,1.7,0,0,1,1.74,1.68A1.75,1.75,0,0,1,204.41,128.82Zm-.73,33.28V137h1.42V162.1Z" transform="translate(-0.01)"/><path class="cls-2" d="M231,162.1h-1.32V147.8c0-5.73-1.89-9.94-8.73-9.94-4.68,0-8.2,3.21-8.2,7V162.1h-1.37V137h1.37v4.31c2.42-3.74,5.42-4.74,8.2-4.74,7.26,0,10.05,4.42,10.05,11.26Z" transform="translate(-0.01)"/><path class="cls-2" d="M237.38,128.82a1.7,1.7,0,0,1-1.68-1.74,1.65,1.65,0,0,1,1.68-1.68,1.7,1.7,0,0,1,1.74,1.68A1.75,1.75,0,0,1,237.38,128.82Zm-.74,33.28V137h1.42V162.1Z" transform="translate(-0.01)"/><path class="cls-2" d="M247.79,138.28v18.35c0,3.16,1.11,4.05,4,4.16v1.31h-.42c-3.58,0-5-2.21-5-5.47V138.28h-4.15V137h4.15v-7.79h1.42V137h4.73v1.31Z" transform="translate(-0.01)"/><path class="cls-2" d="M273.61,162.36l-.79-3.31c-3.05,2.63-5.47,3.57-8.78,3.57-4.94,0-8.83-2.47-8.83-7.36,0-4.57,3.83-7.09,8.36-7.09h3.94c1.58,0,3.57,0,5.15-1.69v-3c0-3.69-3.94-5.74-7-5.74s-6.36,1.11-7.68,4.26l-1.26-.42c1.63-3.68,4.78-5.15,9.1-5.15,4.05,0,8.2,2.79,8.2,6.89v15l.74,3.74Zm-.95-14.19c-2.26,1.21-2.94,1.26-4.47,1.26h-4.62c-3.42,0-6.95,1.73-6.95,5.83,0,4.26,3.79,6.05,7.42,6.05s6-1.21,8.62-3.84Z" transform="translate(-0.01)"/><path class="cls-2" d="M287.54,162.57c-4.73,0-8.88-1.78-10-6.25l1.32-.21c1.1,4,5,5.15,8.67,5.15,3.31,0,7.78-1.58,7.78-5.94,0-8.52-16.93-3.63-16.93-12.57,0-4.31,4.05-6.15,8.31-6.15,3.89,0,6.89,1.15,8.73,4.36l-1.21.58c-1.68-2.89-4.37-3.58-7.52-3.58-2.63,0-6.94.79-6.94,4.79,0,7.41,16.93,2.79,16.93,12.57C296.69,160.05,292.17,162.57,287.54,162.57Z" transform="translate(-0.01)"/></g><g class="cls-1"><path class="cls-2" d="M169.5,203.11c-7.15,0-12.36-2.31-13.83-8.83l1.47-.21c1.42,6.05,7.1,7.68,12.36,7.68s11.15-2.74,11.15-8.94c0-12.78-23.66-5.58-23.66-18.41,0-6.15,5.57-8.83,11.35-8.83,5.52,0,9.73,1.84,12.2,6.62l-1.31.58c-2.32-4.36-6.1-5.73-10.89-5.73-4.31,0-9.88,1.63-9.88,7.36,0,11.26,23.66,4.31,23.66,18.41C182.12,199.54,176,203.11,169.5,203.11Z" transform="translate(-0.01)"/><path class="cls-2" d="M205.15,190H186.27c.06,7,2.42,11.78,9.84,11.78,3,0,5.25-.68,7-2.68l1,.84c-2,2.21-4.52,3.15-8.09,3.15-8.31,0-11.31-5.36-11.31-13,0-7.31,2.79-13,10.78-13,6.78,0,9.57,5,9.57,11.36Zm-9.57-11.62c-6.26,0-8.89,4-9.31,10.31h17.51C203.68,183.08,201.73,178.4,195.58,178.4Z" transform="translate(-0.01)"/><path class="cls-2" d="M228.76,202.64h-1.32v-14.3c0-5.73-1.89-9.94-8.73-9.94-4.68,0-8.2,3.21-8.2,7v17.19h-1.37V177.51h1.37v4.31c2.42-3.74,5.42-4.74,8.2-4.74,7.26,0,10,4.42,10,11.26Z" transform="translate(-0.01)"/><path class="cls-2" d="M242.11,203.11c-4.73,0-8.89-1.78-10-6.25l1.32-.21c1.1,4,5,5.15,8.67,5.15,3.31,0,7.78-1.58,7.78-5.94,0-8.52-16.93-3.63-16.93-12.57,0-4.31,4-6.15,8.31-6.15,3.89,0,6.89,1.15,8.73,4.36l-1.21.58c-1.68-2.89-4.37-3.58-7.52-3.58-2.63,0-6.94.79-6.94,4.79,0,7.41,16.93,2.79,16.93,12.57C251.26,200.59,246.74,203.11,242.11,203.11Z" transform="translate(-0.01)"/><path class="cls-2" d="M272.08,202.9l-.79-3.31c-3.05,2.63-5.47,3.58-8.78,3.58-4.94,0-8.83-2.48-8.83-7.37,0-4.57,3.84-7.09,8.36-7.09H266c1.58,0,3.58,0,5.15-1.69v-3c0-3.69-3.94-5.74-7-5.74s-6.36,1.11-7.68,4.26l-1.26-.42c1.63-3.68,4.79-5.15,9.1-5.15,4.05,0,8.2,2.79,8.2,6.89v15l.74,3.74Zm-.95-14.19c-2.26,1.21-2.94,1.26-4.46,1.26H262c-3.42,0-6.94,1.73-6.94,5.83,0,4.26,3.78,6,7.41,6s6-1.21,8.62-3.84Z" transform="translate(-0.01)"/></g><g class="cls-1"><path class="cls-2" d="M287.79,203.06l1.58,3.73L286.06,213H284l4.1-6.31-1.53-3.58c-7.31-.26-10.72-5.94-10.72-13,0-7.25,3.57-13,11.25-13a9.93,9.93,0,0,1,8,3.42l-1,.84a8.78,8.78,0,0,0-7-3.1c-7.42,0-9.73,5.94-9.73,11.88s2.31,11.83,9.73,11.83a8.78,8.78,0,0,0,7-3.1l1,.9A9.77,9.77,0,0,1,287.79,203.06Z" transform="translate(-0.01)"/></g><g class="cls-1"><path class="cls-2" d="M307.51,203.11c-8,0-10.51-5.68-10.51-13s2.47-13,10.51-13,10.47,5.68,10.47,13S315.5,203.11,307.51,203.11Zm0-24.71c-7.73,0-9.09,5.78-9.09,11.72s1.36,11.68,9,11.68,9.15-5.79,9.15-11.68S315.19,178.4,307.51,178.4Zm4.31-5.57c-2.94,0-5.31-2.37-8.09-2.37a3.25,3.25,0,0,0-2.69,1.42L300,171a4.64,4.64,0,0,1,3.68-1.89c2.95,0,5.26,2.36,8.1,2.36a3.11,3.11,0,0,0,2.63-1.42l1.05.84A4.49,4.49,0,0,1,311.82,172.83Z" transform="translate(-0.01)"/><path class="cls-2" d="M341,190H322.13c.05,7,2.42,11.78,9.83,11.78,3,0,5.26-.68,7.05-2.68l1.05.84c-2,2.21-4.52,3.15-8.1,3.15-8.31,0-11.3-5.36-11.3-13,0-7.31,2.78-13,10.78-13,6.78,0,9.57,5,9.57,11.36Zm-9.57-11.62c-6.26,0-8.89,4-9.31,10.31h17.51C339.53,183.08,337.59,178.4,331.44,178.4Z" transform="translate(-0.01)"/><path class="cls-2" d="M353.57,203.11c-4.73,0-8.88-1.78-10-6.25l1.32-.21c1.1,4,5,5.15,8.67,5.15,3.31,0,7.78-1.58,7.78-5.94,0-8.52-16.93-3.63-16.93-12.57,0-4.31,4.05-6.15,8.31-6.15,3.89,0,6.89,1.15,8.73,4.36l-1.21.58c-1.68-2.89-4.36-3.58-7.52-3.58-2.63,0-6.94.79-6.94,4.79,0,7.41,16.93,2.79,16.93,12.57C362.72,200.59,358.2,203.11,353.57,203.11Z" transform="translate(-0.01)"/></g></g></svg>