<svg id="Layer_2" data-name="Layer 2" xmlns="http://www.w3.org/2000/svg" viewBox="0 0 362.6 258.89"><defs><style>.cls-1{isolation:isolate;font-size:17.12px;font-family:AauxProOT-Regular, AauxPro OT;letter-spacing:0.14em;}.cls-1,.cls-6{fill:#fff;}.cls-2{letter-spacing:0.12em;}.cls-3{letter-spacing:0.09em;}.cls-4,.cls-5{fill:none;stroke:#686058;stroke-linecap:round;stroke-linejoin:round;}.cls-4{stroke-width:2px;}.cls-5{stroke-width:1.97px;}.cls-6{font-size:52.58px;font-family:AauxProOT-Thin, AauxPro OT;letter-spacing:-0.04em;}.cls-7{letter-spacing:-0.06em;}.cls-8{letter-spacing:-0.04em;}</style></defs><title>infinita-sencacoes</title><text class="cls-1" transform="translate(72.3 121.13) scale(1.06 1)">L<tspan class="cls-2" x="11.18" y="0">ANÇAMEN</tspan><tspan class="cls-3" x="103.22" y="0">T</tspan><tspan class="cls-2" x="114.42" y="0">O</tspan></text><path class="cls-4" d="M375.3,263.47" transform="translate(-216.82 -163.28)"/><path class="cls-4" d="M339.88,309.33" transform="translate(-216.82 -163.28)"/><path class="cls-4" d="M423.87,223.3A55.38,55.38,0,0,1,487.4,272" transform="translate(-216.82 -163.28)"/><path class="cls-4" d="M457.42,245.8A40.37,40.37,0,0,1,469,259.94" transform="translate(-216.82 -163.28)"/><path class="cls-4" d="M400.45,253.11" transform="translate(-216.82 -163.28)"/><path class="cls-4" d="M339.84,309.3a54.21,54.21,0,1,1-19.43-82" transform="translate(-216.82 -163.28)"/><path class="cls-4" d="M339.84,309.3a54.21,54.21,0,1,1-19.43-82" transform="translate(-216.82 -163.28)"/><path class="cls-4" d="M315.91,356.33c-21.82,5.08-46.31.66-66.65-15.05-24.94-19.27-35.63-49.89-29.94-77.79" transform="translate(-216.82 -163.28)"/><path class="cls-4" d="M255.64,329.62c30.55,23.59,72,18,95-12.2L362.7,302" transform="translate(-216.82 -163.28)"/><path class="cls-4" d="M408.44,263.49" transform="translate(-216.82 -163.28)"/><line class="cls-4" x1="146.35" y1="160.04" x2="131.73" y2="178.7"/><path class="cls-5" d="M459.67,278.9a26.3,26.3,0,0,0-9.88-23.41c-11.67-9-28.88-6.28-38.44,6.1l-2,2.25" transform="translate(-216.82 -163.28)"/><polyline class="cls-4" points="123.34 190.03 99.92 220.34 70.5 257.89"/><polyline class="cls-4" points="229.65 1 196.24 44.25 154.27 97.82"/><path class="cls-4" d="M337.77,240.37a53.85,53.85,0,0,1,9.37,14.81" transform="translate(-216.82 -163.28)"/><path class="cls-4" d="M320.23,227.21a54.9,54.9,0,0,1,17.54,13.16" transform="translate(-216.82 -163.28)"/><path class="cls-4" d="M271.43,245.8a40.63,40.63,0,0,0-14.07,43.85" transform="translate(-216.82 -163.28)"/><path class="cls-4" d="M328.4,253.11" transform="translate(-216.82 -163.28)"/><path class="cls-4" d="M328.4,253.11" transform="translate(-216.82 -163.28)"/><path class="cls-4" d="M366.15,302" transform="translate(-216.82 -163.28)"/><path class="cls-4" d="M275.48,295.63c-9.71-12.58-8-30.2,3.88-39.36,10.37-8,25.06-6.89,35.08,2" transform="translate(-216.82 -163.28)"/><path class="cls-4" d="M294.65,318.52a40.46,40.46,0,0,0,26.44-8.44" transform="translate(-216.82 -163.28)"/><path class="cls-4" d="M257.36,289.65a40.49,40.49,0,0,0,6.76,13.12" transform="translate(-216.82 -163.28)"/><path class="cls-4" d="M264.12,302.77a40.52,40.52,0,0,0,30.53,15.75" transform="translate(-216.82 -163.28)"/><path class="cls-4" d="M452.11,198.69a79.71,79.71,0,0,1,29.81,14.48c22.94,17.72,33.57,45.27,30.18,71.25" transform="translate(-216.82 -163.28)"/><text class="cls-6" transform="translate(152.15 162.1)">Infinitas <tspan x="1.05" y="40.54">Sensa</tspan><tspan class="cls-7" x="121.34" y="40.54">ç</tspan><tspan class="cls-8" x="142.48" y="40.54">ões</tspan></text></svg>