<svg id="Layer_1" data-name="Layer 1" xmlns="http://www.w3.org/2000/svg" viewBox="0 0 157.26 44.3"><defs><style>.cls-1{fill:#fff;}.cls-2{fill:#ec7700;}</style></defs><title>logo</title><path class="cls-1" d="M658.41,344.76a12.6,12.6,0,1,0,12.72,12.6,12.66,12.66,0,0,0-12.72-12.6m0,18.47c-3.06,0-5.33-2.42-5.33-5.87s2.27-5.86,5.33-5.86,5.34,2.41,5.34,5.86-2.26,5.87-5.34,5.87" transform="translate(-513.87 -344.76)"/><path class="cls-1" d="M633.33,363.23c-3.06,0-5.33-2.42-5.33-5.87s2.27-5.86,5.33-5.86a5.07,5.07,0,0,1,4.81,3.18l5.15-5.14a12.6,12.6,0,1,0,0,15.65L638.14,360a5.11,5.11,0,0,1-4.81,3.19" transform="translate(-513.87 -344.76)"/><polygon class="cls-1" points="37.02 4.98 37.02 0.39 29.65 0.39 29.65 24.82 37.02 24.82 37.02 7.71 47.67 7.71 47.67 0.39 41.6 0.39 37.02 4.98"/><path class="cls-1" d="M530.19,347.49h0a8.89,8.89,0,0,0-6.24-2.72c-5.57,0-10.08,5.65-10.08,12.6S518.38,370,524,370a8.81,8.81,0,0,0,6.24-2.72h0l2.34,2.34h5.91V345.16h-5.92Zm.86,13.68a4.88,4.88,0,0,1-4.15,2.06,5.87,5.87,0,0,1,0-11.73,4.85,4.85,0,0,1,4.15,2.06Z" transform="translate(-513.87 -344.76)"/><path class="cls-1" d="M582.05,345.16h0l-2.33,2.33h0a8.89,8.89,0,0,0-6.24-2.72c-5.56,0-10.08,5.65-10.08,12.6s4.52,12.6,10.08,12.6a8.81,8.81,0,0,0,6.24-2.72h0l2.34,2.34H588V345.16h-5.91Zm-1.48,16a4.86,4.86,0,0,1-4.13,2.06,5.87,5.87,0,0,1,0-11.73,4.84,4.84,0,0,1,4.13,2.06Z" transform="translate(-513.87 -344.76)"/><polygon class="cls-1" points="94.57 17.92 86.64 17.92 86.64 0.85 79.27 0.85 79.27 19.7 84.85 25.28 101.96 25.28 101.96 0.85 94.57 0.85 94.57 17.92"/><polygon class="cls-2" points="74.69 31.52 74.69 44.16 71.87 44.16 71.87 38.03 68.46 41.45 65.04 38.03 65.04 44.16 62.22 44.16 62.22 31.52 68.46 37.77 74.69 31.52"/><polygon class="cls-2" points="80.64 36.55 84.52 36.55 84.52 39.27 80.64 39.27 80.64 41.38 85.57 41.38 85.57 44.16 77.83 44.16 77.83 31.66 85.57 31.66 85.57 34.44 80.64 34.44 80.64 36.55"/><polygon class="cls-2" points="88.23 31.66 91.07 31.66 91.07 41.36 95.91 41.36 95.91 44.16 88.23 44.16 88.23 31.66"/><path class="cls-2" d="M613.61,388.92h-3l6.16-12.64L623,388.92h-3l-.89-1.93H614.5Zm3.2-6.83-1.18,2.61H618Z" transform="translate(-513.87 -344.76)"/><polygon class="cls-2" points="123.34 31.52 123.34 44.16 120.53 44.16 120.53 38.03 117.11 41.45 113.69 38.03 113.69 44.16 110.88 44.16 110.88 31.52 117.11 37.77 123.34 31.52"/><rect class="cls-2" x="126.48" y="31.66" width="2.84" height="12.5"/><polygon class="cls-2" points="143.16 44.3 135.26 37.63 135.26 44.16 132.45 44.16 132.45 31.52 140.34 38.19 140.34 31.66 143.16 31.66 143.16 44.3"/><path class="cls-2" d="M661.77,388.92h-3L665,376.28l6.16,12.64h-3l-.9-1.93h-4.61Zm3.2-6.83-1.18,2.61h2.36Z" transform="translate(-513.87 -344.76)"/></svg>